<mxfile host="app.diagrams.net" modified="2024-04-18T20:51:11.749Z" agent="Mozilla/5.0 (Windows NT 10.0; Win64; x64) AppleWebKit/537.36 (KHTML, like Gecko) Chrome/123.0.0.0 Safari/537.36" version="24.2.5" etag="k1o8tODP3NkknqhvVE0m" type="github">
  <diagram name="Page-1" id="1ndtQ4KKhLDp6mDTsfOh">
    <mxGraphModel>
      <root>
        <mxCell id="0" />
        <mxCell id="1" parent="0" />
      </root>
    </mxGraphModel>
  </diagram>
</mxfile>
